<?xml version="1.0" standalone="no"?><!DOCTYPE svg PUBLIC "-//W3C//DTD SVG 1.1//EN" "http://www.w3.org/Graphics/SVG/1.1/DTD/svg11.dtd"><svg t="1741243920459" class="icon" viewBox="0 0 1084 1024" version="1.1" xmlns="http://www.w3.org/2000/svg" p-id="3085" xmlns:xlink="http://www.w3.org/1999/xlink" width="211.71875" height="200"><path d="M975.570824 217.871059a35.659294 35.659294 0 0 0-35.84 35.84c0 19.636706 16.805647 35.84 36.442352 35.84 19.636706 0 35.84 16.203294 35.84 35.84v398.155294a35.659294 35.659294 0 0 1-35.84 35.900235H939.670588a35.659294 35.659294 0 0 0-35.84 35.84V851.907765l-82.642823-82.100706a36.201412 36.201412 0 0 0-25.961412-10.360471h-180.946824a35.659294 35.659294 0 0 0-35.84 35.84c0 19.636706 16.263529 35.84 35.84 35.84h165.888l132.939295 134.02353a36.442353 36.442353 0 0 0 25.419294 11.023058 36.623059 36.623059 0 0 0 36.442353-36.382117l0.602353-108.664471h0.542117A108.423529 108.423529 0 0 0 1084.235294 722.462118V324.788706c0-58.368-48.549647-106.917647-108.66447-106.917647z m-108.664471 360.628706v-469.835294C866.906353 49.152 818.356706 0 758.241882 0H108.664471C49.152 0 0 48.549647 0 108.664471v469.232941c0 59.632941 48.549647 108.724706 108.664471 108.724706h0.602353l-0.602353 180.886588c0 15.058824 9.216 28.310588 22.528 33.490823a35.779765 35.779765 0 0 0 13.251764 2.349177 36.382118 36.382118 0 0 0 26.624-11.565177l191.909647-205.161411h395.264a108.423529 108.423529 0 0 0 108.664471-108.122353z m-518.987294 35.84h-0.602353c-3.433412 0-6.927059 1.204706-10.360471 2.349176-1.204706 0.602353-2.349176 0.602353-3.493647 0.602353a26.081882 26.081882 0 0 0-8.071529 5.722353c-1.204706 0.602353-2.288941 1.204706-2.891294 2.349177 0 0-0.602353 0.602353-1.204706 0.602352l-140.348235 149.624471 0.542117-120.169412c0-1.807059 1.144471-2.891294 1.144471-4.638117a35.659294 35.659294 0 0 0-35.84-35.84h-38.128941a36.020706 36.020706 0 0 1-35.84-35.84v-470.437647c0-19.636706 16.203294-35.84 35.84-35.84h650.179764c20.239059 0 35.84 16.203294 35.84 35.84v469.232941a35.659294 35.659294 0 0 1-35.84 35.900235H347.919059v0.602353zM570.428235 304.549647H481.460706V215.642353a38.128941 38.128941 0 0 0-38.189177-38.128941 37.767529 37.767529 0 0 0-38.128941 38.128941v88.967529H316.114824a38.128941 38.128941 0 0 0-38.128942 38.189177c0 21.383529 16.745412 38.128941 38.128942 38.128941h89.027764v88.425412c0 20.781176 16.745412 38.128941 38.128941 38.128941a37.767529 37.767529 0 0 0 38.189177-38.128941V380.265412H570.428235a38.128941 38.128941 0 0 0 38.128941-38.128941 37.647059 37.647059 0 0 0-38.128941-37.586824z" fill="#1afa29" p-id="3086"></path></svg>