<?xml version="1.0" standalone="no"?><!DOCTYPE svg PUBLIC "-//W3C//DTD SVG 1.1//EN" "http://www.w3.org/Graphics/SVG/1.1/DTD/svg11.dtd"><svg height="32" node-id="1" sillyvg="true" template-height="32" template-width="32" version="1.1" viewBox="0 0 32 32" width="32" xmlns="http://www.w3.org/2000/svg" xmlns:xlink="http://www.w3.org/1999/xlink"><defs node-id="103"><linearGradient gradientUnits="objectBoundingBox" id="paint10_linear_31_96" node-id="79" spreadMethod="pad" x1="6.83333" x2="6.83333" y1="10.4" y2="8.6"><stop offset="0.0299084" stop-color="#524049"></stop><stop offset="1" stop-color="#4a2c42"></stop></linearGradient><linearGradient gradientUnits="objectBoundingBox" id="paint11_linear_31_96" node-id="82" spreadMethod="pad" x1="25.1667" x2="25.1667" y1="10.4" y2="8.6"><stop offset="0.0299084" stop-color="#524049"></stop><stop offset="1" stop-color="#4a2c42"></stop></linearGradient><linearGradient gradientUnits="objectBoundingBox" id="paint12_linear_31_96" node-id="85" spreadMethod="pad" x1="8.5" x2="24" y1="23.5" y2="17"><stop offset="0" stop-color="#dfb6ff"></stop><stop offset="1" stop-color="#f3eff9"></stop></linearGradient><linearGradient gradientUnits="objectBoundingBox" id="paint13_linear_31_96" node-id="88" spreadMethod="pad" x1="3" x2="8" y1="22.5" y2="22.5"><stop offset="0" stop-color="#bb8fc3"></stop><stop offset="1" stop-color="#e1bbff"></stop></linearGradient><linearGradient gradientUnits="objectBoundingBox" id="paint14_linear_31_96" node-id="91" spreadMethod="pad" x1="1.5" x2="8.5" y1="12.5" y2="17"><stop offset="0" stop-color="#d5a4a9"></stop><stop offset="1" stop-color="#e3c1ff"></stop></linearGradient><linearGradient gradientUnits="objectBoundingBox" id="paint15_linear_31_96" node-id="94" spreadMethod="pad" x1="24" x2="30.5" y1="16.5" y2="12.5"><stop offset="0" stop-color="#f3edfa"></stop><stop offset="1" stop-color="#d7d7d7"></stop></linearGradient><linearGradient gradientUnits="objectBoundingBox" id="paint16_linear_31_96" node-id="97" spreadMethod="pad" x1="30" x2="25" y1="22.5" y2="22.5"><stop offset="0" stop-color="#e1ccf6"></stop><stop offset="1" stop-color="#f1e7fa"></stop></linearGradient><radialGradient cx="0" cy="0" fx="0" fy="0" gradientUnits="objectBoundingBox" id="paint0_radial_31_96" node-id="47" r="1" rev="10" spreadMethod="pad"><stop offset="0" stop-color="#fff478"></stop><stop offset="0.474827" stop-color="#ffb02e"></stop><stop offset="1" stop-color="#f70a8d"></stop></radialGradient><radialGradient cx="0" cy="0" fx="0" fy="0" gradientUnits="objectBoundingBox" id="paint1_radial_31_96" node-id="51" r="1" rev="9" spreadMethod="pad"><stop offset="0" stop-color="#fff478"></stop><stop offset="0.474827" stop-color="#ffb02e"></stop><stop offset="1" stop-color="#f70a8d"></stop></radialGradient><radialGradient cx="0" cy="0" fx="0" fy="0" gradientUnits="objectBoundingBox" id="paint2_radial_31_96" node-id="55" r="1" rev="8" spreadMethod="pad"><stop offset="0.787821" stop-color="#f59639" stop-opacity="0"></stop><stop offset="0.972509" stop-color="#ff7dce"></stop></radialGradient><radialGradient cx="0" cy="0" fx="0" fy="0" gradientUnits="objectBoundingBox" id="paint3_radial_31_96" node-id="58" r="1" rev="7" spreadMethod="pad"><stop offset="0.314853" stop-color="#000000" stop-opacity="0"></stop><stop offset="1" stop-color="#000000"></stop></radialGradient><radialGradient cx="0" cy="0" fx="0" fy="0" gradientUnits="objectBoundingBox" id="paint4_radial_31_96" node-id="61" r="1" rev="6" spreadMethod="pad"><stop offset="0.507903" stop-color="#7d6133" stop-opacity="0"></stop><stop offset="1" stop-color="#715b32"></stop></radialGradient><radialGradient cx="0" cy="0" fx="0" fy="0" gradientUnits="objectBoundingBox" id="paint5_radial_31_96" node-id="64" r="1" rev="5" spreadMethod="pad"><stop offset="0" stop-color="#ffb849"></stop><stop offset="1" stop-color="#ffb847" stop-opacity="0"></stop></radialGradient><radialGradient cx="0" cy="0" fx="0" fy="0" gradientUnits="objectBoundingBox" id="paint6_radial_31_96" node-id="67" r="1" rev="4" spreadMethod="pad"><stop offset="0" stop-color="#ffa64b"></stop><stop offset="0.900412" stop-color="#ffae46" stop-opacity="0"></stop></radialGradient><radialGradient cx="0" cy="0" fx="0" fy="0" gradientUnits="objectBoundingBox" id="paint7_radial_31_96" node-id="70" r="1" rev="3" spreadMethod="pad"><stop offset="0.185425" stop-color="#000000" stop-opacity="0"></stop><stop offset="1" stop-color="#000000" stop-opacity="0.4"></stop></radialGradient><radialGradient cx="0" cy="0" fx="0" fy="0" gradientUnits="objectBoundingBox" id="paint8_radial_31_96" node-id="73" r="1" rev="2" spreadMethod="pad"><stop offset="0" stop-color="#f70a8d" stop-opacity="0.59"></stop><stop offset="1" stop-color="#ff6dc6" stop-opacity="0"></stop></radialGradient><radialGradient cx="0" cy="0" fx="0" fy="0" gradientUnits="objectBoundingBox" id="paint9_radial_31_96" node-id="76" r="1" rev="1" spreadMethod="pad"><stop offset="0" stop-color="#f70a8d" stop-opacity="0.59"></stop><stop offset="1" stop-color="#ff6dc6" stop-opacity="0"></stop></radialGradient><filter filterUnits="objectBoundingBox" height="7.00012" id="filter0_f_31_96" node-id="31" width="10.0002" x="4.99988" y="8"><feFlood color-interpolation-filters="sRGB" flood-color="#000000" flood-opacity="0" result="BackgroundImageFix"></feFlood><feBlend color-interpolation-filters="sRGB" in="SourceGraphic" in2="BackgroundImageFix" mode="normal" result="shape"></feBlend><feGaussianBlur color-interpolation-filters="sRGB" in="shape" result="effect1_foregroundBlur_31_96" stdDeviation="0.75 0.75"></feGaussianBlur></filter><filter filterUnits="objectBoundingBox" height="7.0002403" id="filter1_f_31_96" node-id="35" width="10.0005" x="15.9998" y="8"><feFlood color-interpolation-filters="sRGB" flood-color="#000000" flood-opacity="0" result="BackgroundImageFix"></feFlood><feBlend color-interpolation-filters="sRGB" in="SourceGraphic" in2="BackgroundImageFix" mode="normal" result="shape"></feBlend><feGaussianBlur color-interpolation-filters="sRGB" in="shape" result="effect1_foregroundBlur_31_96" stdDeviation="0.75 0.75"></feGaussianBlur></filter><filter filterUnits="objectBoundingBox" height="5.75006" id="filter2_f_31_96" node-id="39" width="8.75" x="6.375" y="7.875"><feFlood color-interpolation-filters="sRGB" flood-color="#000000" flood-opacity="0" result="BackgroundImageFix"></feFlood><feBlend color-interpolation-filters="sRGB" in="SourceGraphic" in2="BackgroundImageFix" mode="normal" result="shape"></feBlend><feGaussianBlur color-interpolation-filters="sRGB" in="shape" result="effect1_foregroundBlur_31_96" stdDeviation="0.75 0.75"></feGaussianBlur></filter><filter filterUnits="objectBoundingBox" height="5.75006" id="filter3_f_31_96" node-id="43" width="8.75" x="17.375" y="7.875"><feFlood color-interpolation-filters="sRGB" flood-color="#000000" flood-opacity="0" result="BackgroundImageFix"></feFlood><feBlend color-interpolation-filters="sRGB" in="SourceGraphic" in2="BackgroundImageFix" mode="normal" result="shape"></feBlend><feGaussianBlur color-interpolation-filters="sRGB" in="shape" result="effect1_foregroundBlur_31_96" stdDeviation="0.75 0.75"></feGaussianBlur></filter><clipPath id="clip0_31_96" node-id="100"><path d="M 0.00 0.00 L 32.00 0.00 L 32.00 32.00 L 0.00 32.00 Z" fill="#000000" fill-rule="nonzero" node-id="244" stroke="none" target-height="32" target-width="32" target-x="0" target-y="0"></path></clipPath></defs><g clip-path="url(#clip0_31_96)" id="sillyvg_g_0" node-id="248"><path d="M 16.00 30.00 L 19.10 29.70 L 21.60 29.10 L 23.80 28.10 L 25.70 26.70 L 27.20 25.00 L 28.40 23.10 L 29.80 18.60 L 30.00 16.00 L 29.80 13.40 L 28.40 8.90 L 27.20 7.00 L 25.70 5.30 L 23.80 3.90 L 21.60 2.90 L 19.10 2.30 L 16.00 2.00 L 12.90 2.30 L 10.40 2.90 L 8.20 3.90 L 6.30 5.30 L 4.80 7.00 L 3.60 8.90 L 2.20 13.40 L 2.00 16.00 L 2.20 18.60 L 3.60 23.10 L 4.80 25.00 L 6.30 26.70 L 8.20 28.10 L 10.40 29.10 L 12.90 29.70 L 16.00 30.00 Z" fill="url(#paint0_radial_31_96)" fill-rule="nonzero" node-id="250" stroke="none" target-height="28" target-width="28" target-x="2" target-y="2"></path><path d="M 16.00 30.00 L 19.10 29.70 L 21.60 29.10 L 23.80 28.10 L 25.70 26.70 L 27.20 25.00 L 28.40 23.10 L 29.80 18.60 L 30.00 16.00 L 29.80 13.40 L 28.40 8.90 L 27.20 7.00 L 25.70 5.30 L 23.80 3.90 L 21.60 2.90 L 19.10 2.30 L 16.00 2.00 L 12.90 2.30 L 10.40 2.90 L 8.20 3.90 L 6.30 5.30 L 4.80 7.00 L 3.60 8.90 L 2.20 13.40 L 2.00 16.00 L 2.20 18.60 L 3.60 23.10 L 4.80 25.00 L 6.30 26.70 L 8.20 28.10 L 10.40 29.10 L 12.90 29.70 L 16.00 30.00 Z" fill="url(#paint1_radial_31_96)" fill-rule="nonzero" node-id="252" stroke="none" target-height="28" target-width="28" target-x="2" target-y="2"></path><path d="M 16.00 30.00 L 19.10 29.70 L 21.60 29.10 L 23.80 28.10 L 25.70 26.70 L 27.20 25.00 L 28.40 23.10 L 29.80 18.60 L 30.00 16.00 L 29.80 13.40 L 28.40 8.90 L 27.20 7.00 L 25.70 5.30 L 23.80 3.90 L 21.60 2.90 L 19.10 2.30 L 16.00 2.00 L 12.90 2.30 L 10.40 2.90 L 8.20 3.90 L 6.30 5.30 L 4.80 7.00 L 3.60 8.90 L 2.20 13.40 L 2.00 16.00 L 2.20 18.60 L 3.60 23.10 L 4.80 25.00 L 6.30 26.70 L 8.20 28.10 L 10.40 29.10 L 12.90 29.70 L 16.00 30.00 Z" fill="url(#paint2_radial_31_96)" fill-rule="nonzero" node-id="254" stroke="none" target-height="28" target-width="28" target-x="2" target-y="2"></path><path d="M 16.00 30.00 L 19.10 29.70 L 21.60 29.10 L 23.80 28.10 L 25.70 26.70 L 27.20 25.00 L 28.40 23.10 L 29.80 18.60 L 30.00 16.00 L 29.80 13.40 L 28.40 8.90 L 27.20 7.00 L 25.70 5.30 L 23.80 3.90 L 21.60 2.90 L 19.10 2.30 L 16.00 2.00 L 12.90 2.30 L 10.40 2.90 L 8.20 3.90 L 6.30 5.30 L 4.80 7.00 L 3.60 8.90 L 2.20 13.40 L 2.00 16.00 L 2.20 18.60 L 3.60 23.10 L 4.80 25.00 L 6.30 26.70 L 8.20 28.10 L 10.40 29.10 L 12.90 29.70 L 16.00 30.00 Z" fill="url(#paint3_radial_31_96)" fill-opacity="0.6" fill-rule="nonzero" node-id="256" stroke="none" target-height="28" target-width="28" target-x="2" target-y="2"></path><path d="M 16.00 30.00 L 19.10 29.70 L 21.60 29.10 L 23.80 28.10 L 25.70 26.70 L 27.20 25.00 L 28.40 23.10 L 29.80 18.60 L 30.00 16.00 L 29.80 13.40 L 28.40 8.90 L 27.20 7.00 L 25.70 5.30 L 23.80 3.90 L 21.60 2.90 L 19.10 2.30 L 16.00 2.00 L 12.90 2.30 L 10.40 2.90 L 8.20 3.90 L 6.30 5.30 L 4.80 7.00 L 3.60 8.90 L 2.20 13.40 L 2.00 16.00 L 2.20 18.60 L 3.60 23.10 L 4.80 25.00 L 6.30 26.70 L 8.20 28.10 L 10.40 29.10 L 12.90 29.70 L 16.00 30.00 Z" fill="url(#paint4_radial_31_96)" fill-rule="nonzero" node-id="258" stroke="none" target-height="28" target-width="28" target-x="2" target-y="2"></path><path d="M 16.00 30.00 L 19.10 29.70 L 21.60 29.10 L 23.80 28.10 L 25.70 26.70 L 27.20 25.00 L 28.40 23.10 L 29.80 18.60 L 30.00 16.00 L 29.80 13.40 L 28.40 8.90 L 27.20 7.00 L 25.70 5.30 L 23.80 3.90 L 21.60 2.90 L 19.10 2.30 L 16.00 2.00 L 12.90 2.30 L 10.40 2.90 L 8.20 3.90 L 6.30 5.30 L 4.80 7.00 L 3.60 8.90 L 2.20 13.40 L 2.00 16.00 L 2.20 18.60 L 3.60 23.10 L 4.80 25.00 L 6.30 26.70 L 8.20 28.10 L 10.40 29.10 L 12.90 29.70 L 16.00 30.00 Z" fill="url(#paint5_radial_31_96)" fill-rule="nonzero" node-id="260" stroke="none" target-height="28" target-width="28" target-x="2" target-y="2"></path><path d="M 16.00 30.00 L 19.10 29.70 L 21.60 29.10 L 23.80 28.10 L 25.70 26.70 L 27.20 25.00 L 28.40 23.10 L 29.80 18.60 L 30.00 16.00 L 29.80 13.40 L 28.40 8.90 L 27.20 7.00 L 25.70 5.30 L 23.80 3.90 L 21.60 2.90 L 19.10 2.30 L 16.00 2.00 L 12.90 2.30 L 10.40 2.90 L 8.20 3.90 L 6.30 5.30 L 4.80 7.00 L 3.60 8.90 L 2.20 13.40 L 2.00 16.00 L 2.20 18.60 L 3.60 23.10 L 4.80 25.00 L 6.30 26.70 L 8.20 28.10 L 10.40 29.10 L 12.90 29.70 L 16.00 30.00 Z" fill="url(#paint6_radial_31_96)" fill-rule="nonzero" node-id="262" stroke="none" target-height="28" target-width="28" target-x="2" target-y="2"></path><path d="M 16.00 30.00 L 19.10 29.70 L 21.60 29.10 L 23.80 28.10 L 25.70 26.70 L 27.20 25.00 L 28.40 23.10 L 29.80 18.60 L 30.00 16.00 L 29.80 13.40 L 28.40 8.90 L 27.20 7.00 L 25.70 5.30 L 23.80 3.90 L 21.60 2.90 L 19.10 2.30 L 16.00 2.00 L 12.90 2.30 L 10.40 2.90 L 8.20 3.90 L 6.30 5.30 L 4.80 7.00 L 3.60 8.90 L 2.20 13.40 L 2.00 16.00 L 2.20 18.60 L 3.60 23.10 L 4.80 25.00 L 6.30 26.70 L 8.20 28.10 L 10.40 29.10 L 12.90 29.70 L 16.00 30.00 Z" fill="url(#paint7_radial_31_96)" fill-rule="nonzero" node-id="264" stroke="none" target-height="28" target-width="28" target-x="2" target-y="2"></path><path d="M 7.50 23.00 L 9.30 22.80 L 10.80 22.10 L 12.10 21.10 L 13.10 19.80 L 13.80 18.30 L 14.00 16.50 L 13.80 14.70 L 13.10 13.20 L 12.10 11.90 L 10.80 10.90 L 9.30 10.20 L 7.50 10.00 L 5.70 10.20 L 4.20 10.90 L 2.90 11.90 L 1.90 13.20 L 1.20 14.70 L 1.00 16.50 L 1.20 18.30 L 1.90 19.80 L 2.90 21.10 L 4.20 22.10 L 5.70 22.80 L 7.50 23.00 Z" fill="url(#paint8_radial_31_96)" fill-opacity="0.5" fill-rule="nonzero" group-id="1" node-id="268" stroke="none" target-height="13" target-width="13" target-x="1" target-y="10"></path><path d="M 24.50 23.00 L 26.30 22.80 L 27.80 22.10 L 29.10 21.10 L 30.10 19.80 L 30.80 18.30 L 31.00 16.50 L 30.80 14.70 L 30.10 13.20 L 29.10 11.90 L 27.80 10.90 L 26.30 10.20 L 24.50 10.00 L 22.70 10.20 L 21.20 10.90 L 19.90 11.90 L 18.90 13.20 L 18.20 14.70 L 18.00 16.50 L 18.20 18.30 L 18.90 19.80 L 19.90 21.10 L 21.20 22.10 L 22.70 22.80 L 24.50 23.00 Z" fill="url(#paint9_radial_31_96)" fill-opacity="0.5" fill-rule="nonzero" group-id="2" node-id="273" stroke="none" target-height="13" target-width="13" target-x="18" target-y="10"></path><path d="M 7.50 12.50 L 8.40 11.00 L 10.00 10.50 L 11.60 11.00 L 12.50 12.50" fill="none" filter="url(#filter0_f_31_96)" group-id="3" node-id="278" stroke="#9a4609" stroke-linecap="round" stroke-opacity="0.5" stroke-width="2" target-height="2" target-width="5" target-x="7.5" target-y="10.5"></path><path d="M 18.50 12.50 L 19.50 11.00 L 21.00 10.50 L 22.50 11.00 L 23.50 12.50" fill="none" filter="url(#filter1_f_31_96)" group-id="4" node-id="283" stroke="#9a4609" stroke-linecap="round" stroke-opacity="0.5" stroke-width="2" target-height="2" target-width="5" target-x="18.5" target-y="10.5"></path><path d="M 8.00 12.00 L 8.90 10.50 L 10.50 10.00 L 12.10 10.50 L 13.00 12.00" fill="none" node-id="286" stroke="#43273b" stroke-linecap="round" stroke-width="2" target-height="2" target-width="5" target-x="8" target-y="10"></path><path d="M 8.30 11.80 L 9.10 10.30 L 10.80 9.80 L 12.40 10.30 L 13.20 11.80" fill="none" filter="url(#filter2_f_31_96)" group-id="5" node-id="290" stroke="#ffffff" stroke-linecap="round" stroke-opacity="0.26" stroke-width="0.75" target-height="2" target-width="4.8999996" target-x="8.3" target-y="9.8"></path><path d="M 19.00 12.00 L 20.00 10.50 L 21.50 10.00 L 23.00 10.50 L 24.00 12.00" fill="none" node-id="293" stroke="#43273b" stroke-linecap="round" stroke-width="2" target-height="2" target-width="5" target-x="19" target-y="10"></path><path d="M 19.30 11.80 L 20.10 10.30 L 21.80 9.80 L 23.40 10.30 L 24.30 11.80" fill="none" filter="url(#filter3_f_31_96)" group-id="6" node-id="297" stroke="#ffffff" stroke-linecap="round" stroke-opacity="0.26" stroke-width="0.75" target-height="2" target-width="5" target-x="19.3" target-y="9.8"></path><path d="M 6.50 9.50 L 7.70 7.60 L 8.90 6.80 L 10.50 6.50" fill="none" node-id="300" stroke="url(#paint10_linear_31_96)" stroke-linecap="round" stroke-width="1" target-height="3" target-width="4" target-x="6.5" target-y="6.5"></path><path d="M 25.50 9.50 L 24.30 7.60 L 23.10 6.80 L 21.50 6.50" fill="none" node-id="302" stroke="url(#paint11_linear_31_96)" stroke-linecap="round" stroke-width="1" target-height="3" target-width="4" target-x="21.5" target-y="6.5"></path><path d="M 8.00 17.60 L 8.40 16.30 L 9.50 15.60 L 16.00 14.20 L 22.50 15.60 L 23.60 16.30 L 24.00 17.60 L 24.00 23.60 L 23.60 24.80 L 21.60 25.90 L 18.80 26.70 L 16.00 26.90 L 13.20 26.70 L 10.40 25.90 L 8.40 24.80 L 8.00 23.60 L 8.00 17.60 Z" fill="url(#paint12_linear_31_96)" fill-rule="nonzero" node-id="304" stroke="none" target-height="12.7" target-width="16" target-x="8" target-y="14.2"></path><path d="M 3.50 23.00 L 9.00 23.00 L 9.00 22.00 L 3.10 22.00 L 3.50 23.00 Z" fill="url(#paint13_linear_31_96)" fill-rule="evenodd" node-id="306" stroke="none" target-height="1" target-width="5.9" target-x="3.1" target-y="22"></path><path d="M 2.20 13.50 L 8.20 17.40 L 8.80 16.60 L 2.40 12.50 L 2.20 13.50 Z" fill="url(#paint14_linear_31_96)" fill-rule="evenodd" node-id="308" stroke="none" target-height="4.8999996" target-width="6.6000004" target-x="2.2" target-y="12.5"></path><path d="M 29.60 12.50 L 23.20 16.60 L 23.80 17.40 L 29.80 13.50 L 29.60 12.50 Z" fill="url(#paint15_linear_31_96)" fill-rule="evenodd" node-id="310" stroke="none" target-height="4.8999996" target-width="6.5999985" target-x="23.2" target-y="12.5"></path><path d="M 28.90 22.00 L 24.00 22.00 L 24.00 23.00 L 28.50 23.00 L 28.90 22.00 Z" fill="url(#paint16_linear_31_96)" fill-rule="evenodd" node-id="312" stroke="none" target-height="1" target-width="4.8999996" target-x="24" target-y="22"></path></g></svg>